<?xml version="1.0" standalone="no"?>
<!DOCTYPE svg PUBLIC "-//W3C//DTD SVG 20010904//EN"
 "http://www.w3.org/TR/2001/REC-SVG-20010904/DTD/svg10.dtd">
<svg version="1.0" xmlns="http://www.w3.org/2000/svg"
 width="500.000000pt" height="500.000000pt" viewBox="0 0 500.000000 500.000000"
 preserveAspectRatio="xMidYMid meet">

<g transform="translate(0.000000,500.000000) scale(0.100000,-0.100000)"
fill="#000000" stroke="none">
<path d="M1780 4942 c0 -40 -32 -110 -67 -146 -42 -43 -93 -71 -146 -81 -44
-8 -49 -32 -9 -41 67 -15 97 -29 135 -63 42 -37 87 -120 87 -158 0 -16 6 -23
19 -23 14 0 20 10 24 41 12 93 109 187 207 203 58 9 51 30 -15 45 -32 7 -74
26 -98 44 -46 35 -97 123 -97 169 0 21 -5 28 -20 28 -13 0 -20 -7 -20 -18z
m55 -140 c17 -26 51 -61 77 -78 l47 -32 -50 -31 c-31 -19 -61 -49 -81 -81
l-32 -51 -17 33 c-21 41 -73 94 -111 114 -16 8 -28 16 -28 18 0 2 22 16 48 33
28 17 61 49 78 76 16 26 31 47 34 46 3 0 19 -21 35 -47z"/>
<path d="M2380 4848 c0 -7 14 -27 32 -45 l32 -33 -34 -35 c-26 -27 -31 -38
-22 -47 9 -9 20 -4 47 22 l35 34 35 -34 c27 -26 38 -31 47 -22 9 9 4 20 -22
47 l-34 35 32 33 c33 34 41 57 20 57 -7 0 -27 -14 -45 -32 l-33 -32 -33 32
c-34 33 -57 41 -57 20z"/>
<path d="M3424 4446 c-101 -68 -176 -162 -217 -273 -29 -78 -32 -290 -5 -368
17 -49 17 -56 -26 -445 l-43 -395 -31 -32 c-35 -35 -43 -84 -18 -118 12 -17
11 -23 -10 -48 -29 -34 -31 -83 -7 -125 17 -29 13 -62 -155 -1249 -95 -670
-173 -1230 -172 -1246 0 -17 13 -41 33 -63 61 -67 166 -52 202 28 8 18 92 582
187 1253 94 671 176 1222 182 1224 5 2 20 15 33 29 26 28 31 87 10 116 -12 16
-10 22 10 42 28 28 33 104 8 124 -8 7 -15 22 -15 34 0 11 31 192 68 402 52
291 73 388 89 410 117 166 137 406 48 577 -28 54 -94 143 -111 151 -6 2 -33
-10 -60 -28z m98 -77 c110 -157 122 -354 33 -534 -20 -41 -42 -79 -49 -84 -7
-6 -53 -4 -131 7 -136 20 -136 20 -155 122 -30 161 14 325 118 441 52 58 120
111 136 106 5 -2 27 -28 48 -58z m-157 -644 c60 -9 111 -18 114 -21 5 -5 -125
-753 -132 -760 -8 -8 -177 21 -177 30 0 6 18 177 40 380 22 204 40 374 40 378
0 10 -13 11 115 -7z m-132 -805 c40 -6 82 -13 94 -15 55 -12 73 -81 28 -111
-22 -14 -35 -14 -117 -3 -73 10 -97 17 -116 36 -17 17 -21 30 -17 46 6 19 40
57 52 57 2 0 37 -5 76 -10z m27 -171 c71 -11 100 -30 100 -66 0 -28 -33 -63
-60 -63 -10 0 -54 5 -97 11 -109 16 -146 52 -107 107 18 25 59 28 164 11z
m-48 -154 c36 -4 70 -10 75 -14 12 -7 -329 -2427 -346 -2459 -28 -52 -106 -58
-145 -11 -14 17 -26 36 -26 42 0 15 339 2404 346 2435 3 14 10 22 18 19 7 -3
42 -8 78 -12z"/>
<path d="M4133 4450 c-35 -21 -63 -66 -63 -100 0 -36 31 -90 61 -105 100 -52
211 36 177 141 -25 73 -109 105 -175 64z m122 -45 c35 -34 33 -78 -4 -116 -36
-36 -70 -37 -110 -3 -24 20 -31 34 -31 60 0 75 92 113 145 59z"/>
<path d="M2311 4379 c-59 -10 -108 -34 -124 -60 -7 -12 0 -65 26 -190 36 -173
37 -175 51 -589 13 -398 13 -416 -5 -435 -39 -43 -43 -109 -10 -149 7 -9 4
-24 -9 -52 -23 -47 -17 -85 16 -117 l24 -22 0 -1315 c0 -1286 0 -1316 20
-1347 50 -83 170 -83 220 0 20 31 20 61 20 1347 l0 1315 25 24 c30 28 34 93 9
129 -14 21 -14 25 0 47 24 37 20 98 -8 132 l-24 29 14 419 c15 416 15 421 50
588 33 154 34 170 20 191 -31 47 -196 76 -315 55z m228 -45 c28 -8 54 -21 57
-29 3 -8 -9 -82 -27 -165 l-32 -150 -92 0 c-106 0 -95 -13 -116 125 -14 91
-26 122 -41 107 -7 -7 -5 -41 6 -105 20 -116 20 -127 2 -127 -10 0 -20 23 -29
68 -39 174 -49 231 -44 245 16 42 215 61 316 31z m-14 -641 c-4 -142 -10 -325
-14 -408 l-6 -150 -97 -3 -98 -3 0 32 c0 45 -19 607 -24 707 l-4 82 125 0 126
0 -8 -257z m19 -625 c22 -32 20 -55 -9 -83 -22 -23 -31 -25 -125 -25 -94 0
-103 2 -125 25 -29 28 -31 51 -9 83 14 21 23 22 134 22 111 0 120 -1 134 -22z
m-4 -168 c27 -27 25 -56 -5 -85 -22 -23 -31 -25 -126 -25 -92 0 -105 2 -126
22 -27 25 -29 54 -7 86 14 21 23 22 130 22 101 0 116 -2 134 -20z m-40 -1457
l0 -1307 -27 -28 c-29 -30 -77 -37 -114 -18 -51 28 -49 -31 -49 1365 l0 1295
95 0 95 0 0 -1307z"/>
<path d="M1330 4176 c-174 -25 -215 -34 -218 -48 -2 -8 36 -116 83 -239 l87
-224 70 -394 c65 -371 68 -394 52 -412 -26 -29 -23 -93 6 -124 18 -19 21 -28
12 -37 -7 -7 -12 -32 -12 -56 0 -36 6 -49 29 -71 l29 -27 171 -1209 c122 -859
177 -1217 189 -1237 34 -57 115 -74 173 -35 69 46 76 -35 -116 1308 -174 1211
-174 1212 -154 1237 26 34 24 84 -5 119 -21 25 -22 31 -10 48 26 36 13 93 -29
126 -18 15 -24 55 -63 410 l-43 394 19 220 c27 303 28 285 -17 284 -21 -1
-135 -15 -253 -33z m250 -43 c0 -21 -7 -112 -15 -203 -8 -91 -15 -175 -15
-186 0 -20 -10 -23 -116 -39 -67 -10 -119 -14 -123 -9 -14 14 -161 406 -156
414 2 4 55 13 117 20 62 7 115 14 118 14 3 1 10 -33 15 -74 7 -56 14 -75 25
-75 16 0 16 8 9 105 -4 54 -3 55 24 58 l27 3 0 -150 c0 -128 2 -151 15 -151
13 0 15 23 15 148 0 82 3 152 7 155 3 4 17 7 30 7 20 0 23 -5 23 -37z m-30
-460 c0 -5 18 -174 40 -377 22 -203 38 -371 36 -373 -6 -6 -165 -27 -170 -22
-8 7 -136 742 -130 748 6 6 148 28 192 30 17 0 32 -2 32 -6z m124 -809 c24
-23 20 -71 -6 -88 -13 -8 -65 -21 -115 -27 -86 -12 -94 -11 -113 6 -25 23 -26
67 -2 88 36 32 210 48 236 21z m21 -159 c30 -29 31 -45 7 -75 -15 -18 -37 -26
-108 -36 -114 -17 -110 -18 -134 6 -25 25 -25 51 -2 81 15 17 37 25 98 34 112
18 112 18 139 -10z m-11 -162 c9 -43 336 -2366 336 -2385 0 -9 -12 -30 -26
-47 -34 -41 -89 -43 -124 -6 -23 24 -34 94 -191 1203 -92 647 -169 1191 -171
1207 l-3 30 75 11 c41 7 80 12 87 13 6 0 14 -11 17 -26z"/>
<path d="M574 4151 c-45 -27 -64 -59 -64 -107 0 -80 80 -139 155 -114 106 35
115 173 15 225 -39 20 -69 19 -106 -4z m118 -51 c25 -26 29 -36 24 -63 -13
-70 -94 -100 -141 -52 -38 37 -37 88 1 123 36 32 79 29 116 -8z"/>
<path d="M4686 3779 c-50 -40 -21 -119 44 -119 64 0 91 70 45 115 -30 30 -54
31 -89 4z m72 -50 c3 -28 -16 -43 -43 -33 -15 6 -21 45 -8 58 16 16 48 1 51
-25z"/>
<path d="M2785 3665 c-30 -30 -31 -54 -4 -89 40 -50 119 -24 119 40 0 68 -68
97 -115 49z m81 -37 c9 -28 -20 -52 -47 -37 -19 10 -25 39 -12 52 15 16 52 6
59 -15z"/>
<path d="M4031 3566 c-22 -99 -104 -176 -205 -193 -26 -4 -36 -11 -36 -24 0
-14 7 -19 28 -19 43 0 126 -44 160 -86 31 -38 62 -110 62 -147 0 -12 6 -17 17
-15 12 2 20 17 25 45 3 23 13 54 22 70 34 67 127 132 189 133 35 0 40 40 5 40
-35 1 -109 38 -146 73 -41 39 -61 76 -70 130 -11 64 -36 61 -51 -7z m53 -96
c30 -46 63 -78 106 -101 l29 -16 -51 -33 c-30 -20 -63 -53 -81 -81 l-29 -48
-32 47 c-17 26 -52 61 -78 77 -26 17 -47 32 -47 35 0 3 19 17 44 32 25 15 58
48 77 77 18 28 34 51 34 51 1 0 13 -18 28 -40z"/>
<path d="M176 3519 c-50 -40 -21 -119 44 -119 65 0 94 79 44 119 -15 12 -34
21 -44 21 -10 0 -29 -9 -44 -21z m74 -38 c7 -15 6 -24 -6 -36 -9 -9 -21 -14
-27 -12 -18 6 -31 33 -24 51 9 22 44 20 57 -3z"/>
<path d="M680 3417 c0 -7 14 -26 30 -42 l30 -29 -31 -32 c-22 -22 -30 -38 -25
-50 6 -15 12 -12 44 19 l38 37 37 -37 c29 -30 39 -35 49 -25 10 10 5 20 -25
49 l-37 37 37 38 c31 32 34 38 19 44 -12 5 -28 -3 -50 -25 l-32 -31 -29 30
c-30 31 -55 39 -55 17z"/>
<path d="M213 2925 c-12 -32 6 -97 56 -200 59 -124 136 -242 322 -490 165
-220 216 -302 278 -442 26 -59 60 -131 74 -160 15 -29 27 -55 27 -59 0 -4 -19
11 -42 32 -162 149 -354 256 -545 305 -89 22 -113 24 -137 6 -59 -43 99 -201
313 -311 50 -26 162 -74 248 -107 170 -65 233 -99 287 -159 47 -52 73 -106 96
-198 22 -87 68 -223 99 -294 20 -48 16 -63 -10 -31 -53 64 -299 245 -392 289
-135 62 -205 -3 -123 -115 63 -85 217 -207 561 -441 116 -79 222 -152 237
-163 29 -22 51 -77 87 -220 21 -87 26 -96 42 -80 13 13 -5 102 -47 235 -33
103 -53 143 -119 238 -135 193 -163 309 -145 590 17 255 -7 422 -71 491 -75
81 -130 0 -147 -218 l-7 -92 -52 87 c-139 236 -145 259 -149 577 -4 306 -8
367 -35 492 -35 163 -82 218 -130 153 -27 -36 -59 -172 -59 -248 l0 -66 -71
125 c-39 68 -98 163 -131 210 -131 193 -291 326 -315 264z m133 -99 c160 -160
356 -491 404 -680 11 -44 19 -80 17 -82 -3 -4 -295 388 -356 479 -60 89 -158
286 -167 336 -7 33 -6 33 17 20 13 -7 51 -40 85 -73z m508 -238 c48 -130 67
-301 64 -580 -2 -126 -4 -228 -5 -228 -1 0 -20 48 -43 107 -89 232 -123 436
-97 583 16 89 41 160 56 160 5 0 16 -19 25 -42z m-440 -723 c100 -29 221 -87
321 -155 86 -58 216 -171 261 -226 l33 -40 -57 27 c-31 15 -102 44 -157 64
-138 52 -270 114 -353 168 -70 45 -192 158 -192 177 0 17 53 11 144 -15z m885
-274 c41 -82 45 -124 46 -446 0 -228 3 -318 13 -339 7 -16 11 -31 8 -33 -9
-10 -100 229 -128 336 -49 189 -50 435 -3 508 19 29 41 20 64 -26z m-402 -532
c94 -47 262 -179 405 -317 116 -113 248 -268 248 -292 0 -17 -467 305 -600
414 -143 116 -204 192 -179 222 16 19 45 13 126 -27z"/>
<path d="M4489 2901 c-94 -67 -212 -221 -336 -438 l-70 -121 -12 94 c-18 152
-67 253 -109 228 -28 -17 -62 -96 -84 -195 -17 -78 -21 -148 -27 -419 -7 -292
-10 -332 -29 -390 -19 -59 -121 -252 -164 -311 -17 -23 -17 -22 -18 56 -1 146
-43 265 -94 265 -34 0 -75 -50 -99 -121 -20 -60 -22 -82 -22 -379 0 -314 0
-315 -26 -387 -29 -78 -75 -162 -144 -262 -25 -36 -58 -99 -74 -141 -42 -107
-84 -281 -72 -293 16 -16 27 0 40 60 24 109 61 209 83 230 13 12 127 92 253
178 370 253 511 366 567 454 33 53 35 81 8 106 -59 54 -233 -36 -479 -248
l-89 -76 38 92 c21 51 53 146 70 212 40 150 61 195 120 255 55 57 100 81 286
153 256 100 407 189 509 299 62 67 71 101 31 120 -20 8 -45 6 -118 -11 -172
-40 -339 -127 -504 -264 l-95 -78 39 78 c21 43 54 114 73 158 48 114 123 233
277 439 178 238 253 350 312 471 61 125 79 187 61 209 -21 24 -43 19 -102 -23z
m71 -12 c0 -18 -51 -141 -83 -199 -61 -111 -113 -189 -262 -390 -83 -113 -159
-216 -168 -230 -22 -31 -21 -26 4 73 46 185 235 503 393 665 85 86 116 107
116 81z m-542 -349 c24 -78 23 -287 -2 -395 -26 -112 -120 -378 -129 -364 -1
2 1 137 4 299 5 259 8 307 28 395 13 55 30 113 38 129 15 29 16 29 30 10 7
-10 22 -44 31 -74z m512 -660 c0 -17 -79 -98 -141 -144 -77 -58 -245 -143
-399 -201 -68 -26 -147 -58 -175 -72 l-50 -26 44 49 c115 126 283 253 421 318
126 59 300 103 300 76z m-938 -323 c17 -61 14 -257 -6 -360 -21 -111 -65 -246
-111 -339 -19 -40 -33 -65 -31 -56 21 77 26 191 15 341 -16 232 5 405 59 468
l26 31 18 -22 c10 -12 23 -41 30 -63z m438 -472 c7 -8 9 -23 5 -36 -12 -37
-133 -149 -275 -255 -158 -118 -503 -355 -509 -349 -11 12 109 157 228 275
154 153 318 282 435 340 87 44 98 47 116 25z"/>
<path d="M4670 2433 c0 -9 12 -30 27 -45 l27 -28 -27 -28 c-27 -28 -36 -62
-17 -62 5 0 24 13 42 29 l33 29 33 -29 c18 -16 37 -29 42 -29 19 0 10 34 -17
62 l-27 28 27 28 c29 30 36 62 14 62 -7 0 -26 -14 -42 -30 l-29 -30 -31 30
c-35 34 -55 38 -55 13z"/>
</g>
</svg>
